<?xml version="1.0" encoding="UTF-8"?>
<svg width="133px" height="42px" viewBox="0 0 133 42" version="1.1" xmlns="http://www.w3.org/2000/svg" xmlns:xlink="http://www.w3.org/1999/xlink">
    <!-- Generator: Sketch 43.2 (39069) - http://www.bohemiancoding.com/sketch -->
    <title>logo-inverse</title>
    <desc>Created with Sketch.</desc>
    <defs></defs>
    <g id="Page-1" stroke="none" stroke-width="1" fill="none" fill-rule="evenodd">
        <g id="logo-inverse" fill="#FFFFFF">
            <path d="M20.686,20.064 C20.686,18.0239898 20.0920059,16.404006 18.904,15.204 C17.7159941,14.003994 16.3060082,13.404 14.674,13.404 C13.0419918,13.404 11.6320059,13.9919941 10.444,15.168 C9.25599406,16.3440059 8.662,17.9519898 8.662,19.992 C8.662,22.0320102 9.25599406,23.6699938 10.444,24.906 C11.6320059,26.1420062 13.0419918,26.76 14.674,26.76 C16.3060082,26.76 17.7159941,26.1540061 18.904,24.942 C20.0920059,23.7299939 20.686,22.1040102 20.686,20.064 Z M7.15,27.426 C5.349991,25.4939903 4.45,23.0220151 4.45,20.01 C4.45,16.9979849 5.34399106,14.5500094 7.132,12.666 C8.92000894,10.7819906 11.1459867,9.84 13.81,9.84 C15.3700078,9.84 16.7439941,10.1939965 17.932,10.902 C19.1200059,11.6100035 20.0379968,12.5399942 20.686,13.692 L20.686,10.164 L24.826,10.164 L24.826,30 L20.686,30 L20.686,26.292 C20.0139966,27.5160061 19.0900059,28.4939963 17.914,29.226 C16.7379941,29.9580037 15.3700078,30.324 13.81,30.324 C11.1699868,30.324 8.950009,29.3580097 7.15,27.426 Z M42.594,20.064 C42.594,18.0239898 42.0000059,16.404006 40.812,15.204 C39.6239941,14.003994 38.2140082,13.404 36.582,13.404 C34.9499918,13.404 33.5400059,13.9919941 32.352,15.168 C31.1639941,16.3440059 30.57,17.9519898 30.57,19.992 C30.57,22.0320102 31.1639941,23.6699938 32.352,24.906 C33.5400059,26.1420062 34.9499918,26.76 36.582,26.76 C38.2140082,26.76 39.6239941,26.1540061 40.812,24.942 C42.0000059,23.7299939 42.594,22.1040102 42.594,20.064 Z M29.058,27.426 C27.257991,25.4939903 26.358,23.0220151 26.358,20.01 C26.358,16.9979849 27.2519911,14.5500094 29.04,12.666 C30.8280089,10.7819906 33.0539867,9.84 35.718,9.84 C37.2780078,9.84 38.6519941,10.1939965 39.84,10.902 C41.0280059,11.6100035 41.9459968,12.5399942 42.594,13.692 L42.594,3.36 L46.734,3.36 L46.734,30 L42.594,30 L42.594,26.292 C41.9219966,27.5160061 40.9980059,28.4939963 39.822,29.226 C38.6459941,29.9580037 37.2780078,30.324 35.718,30.324 C33.0779868,30.324 30.858009,29.3580097 29.058,27.426 Z M64.502,20.064 C64.502,18.0239898 63.9080059,16.404006 62.72,15.204 C61.5319941,14.003994 60.1220082,13.404 58.49,13.404 C56.8579918,13.404 55.4480059,13.9919941 54.26,15.168 C53.0719941,16.3440059 52.478,17.9519898 52.478,19.992 C52.478,22.0320102 53.0719941,23.6699938 54.26,24.906 C55.4480059,26.1420062 56.8579918,26.76 58.49,26.76 C60.1220082,26.76 61.5319941,26.1540061 62.72,24.942 C63.9080059,23.7299939 64.502,22.1040102 64.502,20.064 Z M50.966,27.426 C49.165991,25.4939903 48.266,23.0220151 48.266,20.01 C48.266,16.9979849 49.1599911,14.5500094 50.948,12.666 C52.7360089,10.7819906 54.9619867,9.84 57.626,9.84 C59.1860078,9.84 60.5599941,10.1939965 61.748,10.902 C62.9360059,11.6100035 63.8539968,12.5399942 64.502,13.692 L64.502,10.164 L68.642,10.164 L68.642,30 L64.502,30 L64.502,26.292 C63.8299966,27.5160061 62.9060059,28.4939963 61.73,29.226 C60.5539941,29.9580037 59.1860078,30.324 57.626,30.324 C54.9859868,30.324 52.766009,29.3580097 50.966,27.426 Z M87.706,19.992 C87.706,17.9519898 87.1120059,16.3440059 85.924,15.168 C84.7359941,13.9919941 83.3200082,13.404 81.676,13.404 C80.0319918,13.404 78.6160059,14.003994 77.428,15.204 C76.2399941,16.404006 75.646,18.0239898 75.646,20.064 C75.646,22.1040102 76.2399941,23.7299939 77.428,24.942 C78.6160059,26.1540061 80.0259918,26.76 81.658,26.76 C83.2900082,26.76 84.705994,26.1420062 85.906,24.906 C87.106006,23.6699938 87.706,22.0320102 87.706,19.992 Z M82.558,9.84 C85.2220133,9.84 87.4419911,10.7819906 89.218,12.666 C90.9940089,14.5500094 91.882,16.9979849 91.882,20.01 C91.882,23.0220151 90.9880089,25.4939903 89.2,27.426 C87.4119911,29.3580097 85.1980132,30.324 82.558,30.324 C80.9979922,30.324 79.6300059,29.9580037 78.454,29.226 C77.2779941,28.4939963 76.3420035,27.5160061 75.646,26.292 L75.646,39.432 L71.542,39.432 L71.542,10.164 L75.646,10.164 L75.646,13.692 C76.3180034,12.5399942 77.2479941,11.6100035 78.436,10.902 C79.6240059,10.1939965 80.9979922,9.84 82.558,9.84 Z M103.062,13.512 L98.238,13.512 L98.238,24.492 C98.238,25.2360037 98.4119983,25.7699984 98.76,26.094 C99.1080017,26.4180016 99.7019958,26.58 100.542,26.58 L103.062,26.58 L103.062,30 L99.822,30 C96.0059809,30 94.098,28.1640184 94.098,24.492 L94.098,13.512 L91.758,13.512 L91.758,10.164 L94.098,10.164 L94.098,5.232 L98.238,5.232 L98.238,10.164 L103.062,10.164 L103.062,13.512 Z M108.266,6.78 C107.761997,7.28400252 107.144004,7.536 106.412,7.536 C105.679996,7.536 105.062003,7.28400252 104.558,6.78 C104.053997,6.27599748 103.802,5.65200372 103.802,4.908 C103.802,4.16399628 104.053997,3.54000252 104.558,3.036 C105.062003,2.53199748 105.679996,2.28 106.412,2.28 C107.144004,2.28 107.761997,2.53199748 108.266,3.036 C108.770003,3.54000252 109.022,4.16399628 109.022,4.908 C109.022,5.65200372 108.770003,6.27599748 108.266,6.78 Z M104.342,30 L104.342,10.164 L108.446,10.164 L108.446,30 L104.342,30 Z M109.006,10.164 L113.398,10.164 L119.014,26.328 L124.63,10.164 L129.058,10.164 L121.498,30 L116.53,30 L109.006,10.164 Z" id="adaptiv"></path>
        </g>
    </g>
</svg>
